<svg xmlns="http://www.w3.org/2000/svg" viewBox="0 0 410 404"><defs><linearGradient id="a" x1="6" x2="235" y1="33" y2="344" gradientUnits="userSpaceOnUse"><stop offset="0" stop-color="#41D1FF"/><stop offset="1" stop-color="#BD34FE"/></linearGradient><linearGradient id="b" x1="194" x2="236" y1="8" y2="292" gradientUnits="userSpaceOnUse"><stop offset="0" stop-color="#FFEA83"/><stop offset=".083" stop-color="#FFDD35"/><stop offset="1" stop-color="#FFA800"/></linearGradient></defs><path fill="url(#a)" d="M399.641 59.525 215.643 388.545c-3.799 6.789-13.559 6.829-17.415.071L10.582 59.557c-4.2-7.354 2.107-16.218 10.437-14.732l184.213 32.926a8.31 8.31 0 0 0 2.95-.012l180.183-32.87c8.297-1.514 14.628 7.279 10.476 14.656Z"/><path fill="url(#b)" d="M292.965 1.574 156.801 28.255a4.1 4.1 0 0 0-3.314 3.78l-8.385 141.586a4.1 4.1 0 0 0 5.012 4.234l37.916-8.75a4.1 4.1 0 0 1 4.928 4.806l-11.26 55.151a4.099 4.099 0 0 0 5.193 4.758l23.422-7.117c3.587-1.09 6.99 2.081 6.166 5.738l-17.895 79.477c-1.2 5.33 5.91 8.247 8.7 3.572l1.86-3.114 110.946-221.408c1.84-3.673-1.32-7.85-5.337-7.069l-39.024 7.582a4.1 4.1 0 0 1-4.673-5.262l25.464-89.038c1.149-4.022-2.55-7.792-6.55-6.681Z"/></svg>
